<svg width="300" height="300" xmlns="http://www.w3.org/2000/svg">
  <!-- Background -->
  <rect width="300" height="300" fill="#fff"/>
  
  <!-- QR Code Pattern (simplified) -->
  <rect x="20" y="20" width="20" height="20" fill="#000"/>
  <rect x="60" y="20" width="20" height="20" fill="#000"/>
  <rect x="100" y="20" width="20" height="20" fill="#000"/>
  <rect x="140" y="20" width="20" height="20" fill="#000"/>
  <rect x="180" y="20" width="20" height="20" fill="#000"/>
  <rect x="220" y="20" width="20" height="20" fill="#000"/>
  <rect x="260" y="20" width="20" height="20" fill="#000"/>
  
  <rect x="20" y="60" width="20" height="20" fill="#000"/>
  <rect x="100" y="60" width="20" height="20" fill="#000"/>
  <rect x="140" y="60" width="20" height="20" fill="#000"/>
  <rect x="180" y="60" width="20" height="20" fill="#000"/>
  <rect x="220" y="60" width="20" height="20" fill="#000"/>
  <rect x="260" y="60" width="20" height="20" fill="#000"/>
  
  <rect x="20" y="100" width="20" height="20" fill="#000"/>
  <rect x="60" y="100" width="20" height="20" fill="#000"/>
  <rect x="100" y="100" width="20" height="20" fill="#000"/>
  <rect x="140" y="100" width="20" height="20" fill="#000"/>
  <rect x="180" y="100" width="20" height="20" fill="#000"/>
  <rect x="220" y="100" width="20" height="20" fill="#000"/>
  <rect x="260" y="100" width="20" height="20" fill="#000"/>
  
  <rect x="20" y="140" width="20" height="20" fill="#000"/>
  <rect x="100" y="140" width="20" height="20" fill="#000"/>
  <rect x="140" y="140" width="20" height="20" fill="#000"/>
  <rect x="180" y="140" width="20" height="20" fill="#000"/>
  <rect x="220" y="140" width="20" height="20" fill="#000"/>
  <rect x="260" y="140" width="20" height="20" fill="#000"/>
  
  <rect x="20" y="180" width="20" height="20" fill="#000"/>
  <rect x="60" y="180" width="20" height="20" fill="#000"/>
  <rect x="100" y="180" width="20" height="20" fill="#000"/>
  <rect x="140" y="180" width="20" height="20" fill="#000"/>
  <rect x="180" y="180" width="20" height="20" fill="#000"/>
  <rect x="220" y="180" width="20" height="20" fill="#000"/>
  <rect x="260" y="180" width="20" height="20" fill="#000"/>
  
  <rect x="20" y="220" width="20" height="20" fill="#000"/>
  <rect x="100" y="220" width="20" height="20" fill="#000"/>
  <rect x="140" y="220" width="20" height="20" fill="#000"/>
  <rect x="180" y="220" width="20" height="20" fill="#000"/>
  <rect x="220" y="220" width="20" height="20" fill="#000"/>
  <rect x="260" y="220" width="20" height="20" fill="#000"/>
  
  <rect x="20" y="260" width="20" height="20" fill="#000"/>
  <rect x="60" y="260" width="20" height="20" fill="#000"/>
  <rect x="100" y="260" width="20" height="20" fill="#000"/>
  <rect x="140" y="260" width="20" height="20" fill="#000"/>
  <rect x="180" y="260" width="20" height="20" fill="#000"/>
  <rect x="220" y="260" width="20" height="20" fill="#000"/>
  <rect x="260" y="260" width="20" height="20" fill="#000"/>
  
  <!-- Corner markers -->
  <rect x="20" y="20" width="60" height="60" fill="none" stroke="#000" stroke-width="4"/>
  <rect x="220" y="20" width="60" height="60" fill="none" stroke="#000" stroke-width="4"/>
  <rect x="20" y="220" width="60" height="60" fill="none" stroke="#000" stroke-width="4"/>
  
  <!-- Text -->
  <text x="150" y="150" font-family="Arial" font-size="12" fill="#333" text-anchor="middle">Mock QR Code</text>
  <text x="150" y="170" font-family="Arial" font-size="10" fill="#666" text-anchor="middle">Scan to pay</text>
</svg>

